<svg xmlns="http://www.w3.org/2000/svg" width="1400" height="900" viewBox="0 0 1400 900" role="img" aria-labelledby="title desc">
  <title>Two developers working together</title>
  <desc>A playful illustration of two developers working furiously together at a desk with code windows and coffee.</desc>
  <defs>
    <linearGradient id="bg" x1="0" x2="1" y1="0" y2="1">
      <stop offset="0%" stop-color="#f6efe2" />
      <stop offset="100%" stop-color="#d9ecff" />
    </linearGradient>
    <linearGradient id="screen" x1="0" x2="1">
      <stop offset="0%" stop-color="#17324d" />
      <stop offset="100%" stop-color="#264f73" />
    </linearGradient>
  </defs>
  <rect width="1400" height="900" fill="url(#bg)" />
  <circle cx="180" cy="150" r="70" fill="#ffd36e" opacity="0.55" />
  <circle cx="1200" cy="130" r="90" fill="#ff8b7b" opacity="0.3" />
  <rect x="180" y="520" width="1040" height="40" rx="20" fill="#845c45" />
  <rect x="250" y="560" width="900" height="160" rx="20" fill="#9f7559" />

  <rect x="360" y="190" width="680" height="310" rx="22" fill="#111827" />
  <rect x="390" y="220" width="620" height="250" rx="14" fill="url(#screen)" />
  <rect x="430" y="260" width="180" height="18" rx="9" fill="#60a5fa" opacity="0.9" />
  <rect x="430" y="295" width="260" height="14" rx="7" fill="#93c5fd" opacity="0.9" />
  <rect x="430" y="325" width="210" height="14" rx="7" fill="#f9a8d4" opacity="0.9" />
  <rect x="430" y="355" width="300" height="14" rx="7" fill="#86efac" opacity="0.9" />
  <rect x="760" y="260" width="200" height="150" rx="12" fill="#0f172a" opacity="0.55" />
  <rect x="785" y="290" width="120" height="12" rx="6" fill="#fde68a" />
  <rect x="785" y="320" width="150" height="12" rx="6" fill="#c4b5fd" />
  <rect x="785" y="350" width="95" height="12" rx="6" fill="#fca5a5" />
  <rect x="585" y="500" width="230" height="20" rx="10" fill="#2d3748" />
  <rect x="650" y="520" width="90" height="26" rx="13" fill="#475569" />

  <circle cx="500" cy="520" r="58" fill="#f1c27d" />
  <circle cx="910" cy="520" r="58" fill="#e7b383" />
  <path d="M443 505c8-48 112-48 120 0v34H443z" fill="#3b2f2f" />
  <path d="M853 505c8-48 112-48 120 0v34H853z" fill="#452f48" />
  <circle cx="478" cy="520" r="6" fill="#1f2937" />
  <circle cx="522" cy="520" r="6" fill="#1f2937" />
  <circle cx="888" cy="520" r="6" fill="#1f2937" />
  <circle cx="932" cy="520" r="6" fill="#1f2937" />
  <path d="M480 546c12 10 28 10 40 0" stroke="#7c4a29" stroke-width="4" fill="none" stroke-linecap="round" />
  <path d="M890 546c12 10 28 10 40 0" stroke="#7c4a29" stroke-width="4" fill="none" stroke-linecap="round" />

  <rect x="430" y="578" width="138" height="110" rx="20" fill="#ef4444" />
  <rect x="842" y="578" width="138" height="110" rx="20" fill="#2563eb" />
  <rect x="520" y="606" width="82" height="28" rx="14" fill="#f1c27d" transform="rotate(-20 561 620)" />
  <rect x="798" y="606" width="82" height="28" rx="14" fill="#e7b383" transform="rotate(18 839 620)" />
  <rect x="575" y="615" width="72" height="22" rx="11" fill="#f1c27d" transform="rotate(12 611 626)" />
  <rect x="752" y="615" width="72" height="22" rx="11" fill="#e7b383" transform="rotate(-12 788 626)" />

  <rect x="290" y="460" width="110" height="70" rx="14" fill="#dbeafe" stroke="#1d4ed8" stroke-width="4" />
  <path d="M318 495h54" stroke="#1d4ed8" stroke-width="7" stroke-linecap="round" />
  <path d="M345 470v50" stroke="#1d4ed8" stroke-width="7" stroke-linecap="round" />

  <rect x="1010" y="450" width="120" height="80" rx="18" fill="#fb7185" opacity="0.92" />
  <path d="M1040 490c18-24 52-24 70 0" stroke="#fff" stroke-width="7" stroke-linecap="round" fill="none" />
  <circle cx="1060" cy="486" r="5" fill="#fff" />
  <circle cx="1090" cy="486" r="5" fill="#fff" />

  <rect x="520" y="760" width="360" height="74" rx="22" fill="#fff7ed" stroke="#c2410c" stroke-width="4" />
  <text x="700" y="804" text-anchor="middle" font-family="Georgia, serif" font-size="34" fill="#7c2d12">Two devs shipping the editor</text>
</svg>
